<svg width="1500" height="600" viewBox="0 0 1500 600" fill="none" xmlns="http://www.w3.org/2000/svg">
<path d="M1305.75 266.888C1308.46 266.888 1310.89 265.044 1310.89 261.971C1310.89 258.6 1308.46 257.054 1305.75 257.054H1257.58C1254.55 257.054 1252.13 259.195 1252.13 262.268V338.468C1252.13 341.541 1254.55 344 1257.58 344H1305.75C1308.46 344 1310.89 342.473 1310.89 339.083C1310.89 335.692 1308.46 334.165 1305.75 334.165H1262.43V304.978H1303.32C1306.35 304.978 1308.46 303.451 1308.46 300.061C1308.46 296.987 1306.35 295.143 1303.32 295.143H1262.43V266.888H1305.75V266.888ZM1222.77 317.272C1220.35 315.745 1217.02 316.36 1215.5 318.798C1209.15 328.931 1198.84 334.78 1187.04 334.78C1168.86 334.78 1153.73 319.413 1153.73 300.993C1153.73 282.572 1168.88 266.591 1187.04 266.591C1198.84 266.591 1209.15 272.42 1215.5 282.572C1217 285.031 1220.35 285.646 1222.77 284.099C1224.88 282.87 1225.8 279.796 1224.27 277.04C1217 263.835 1202.17 256.459 1187.02 256.459C1163.09 256.459 1143.41 276.426 1143.41 301.013C1143.41 325.599 1163.09 344.952 1187.02 344.952C1202.17 344.952 1214.87 338.508 1224.27 324.37C1226.09 321.614 1225.17 318.838 1222.77 317.311V317.272ZM837.522 338.468C837.522 341.224 839.34 344 842.663 344C845.986 344 847.804 341.244 847.804 338.468V278.865L875.052 319.73C876.264 321.574 878.082 322.804 880.193 322.804C882.304 322.804 884.121 321.574 885.333 319.73L912.582 278.865V338.468C912.582 341.224 914.399 344 917.722 344C921.045 344 922.863 341.244 922.863 338.468V262.268C922.863 259.195 920.752 257.054 918.328 257.054C915.905 257.054 914.399 257.966 913.188 259.81L880.173 310.193L847.159 259.81C845.947 257.966 844.442 257.054 842.018 257.054C839.594 257.054 837.483 259.195 837.483 262.268V338.468H837.522ZM525.262 317.272C522.838 315.745 519.516 316.36 517.991 318.798C511.638 328.931 501.337 334.78 489.531 334.78C471.352 334.78 456.223 319.413 456.223 300.993C456.223 282.572 471.372 266.591 489.531 266.591C501.337 266.591 511.638 272.42 517.991 282.572C519.496 285.031 522.838 285.646 525.262 284.099C527.373 282.87 528.292 279.796 526.767 277.04C519.496 263.835 504.66 256.459 489.511 256.459C465.586 256.459 445.902 276.426 445.902 301.013C445.902 325.599 465.586 344.952 489.511 344.952C504.66 344.952 517.365 338.508 526.767 324.37C528.585 321.614 527.667 318.838 525.262 317.311V317.272ZM598.856 334.78C580.071 334.78 565.235 319.413 565.235 300.993C565.235 282.572 580.071 266.591 598.856 266.591C617.64 266.591 632.476 281.958 632.476 300.993C632.476 320.028 617.328 334.78 598.856 334.78ZM598.856 256.439C574.931 256.439 554.934 276.406 554.934 300.993C554.934 325.58 574.931 344.932 598.856 344.932C622.781 344.932 642.777 324.965 642.777 300.993C642.777 277.021 622.781 256.439 598.856 256.439ZM680.933 257.054C677.61 257.054 675.792 259.512 675.792 262.268V338.468C675.792 341.224 677.61 344 680.933 344C684.256 344 686.074 341.244 686.074 338.468V262.268C686.074 259.512 684.256 257.054 680.933 257.054ZM792.994 257.054C789.965 257.054 787.854 259.512 787.854 262.268V324.945L733.944 258.898C732.732 257.668 731.52 257.054 729.702 257.054C726.672 257.054 724.854 259.512 724.854 262.268V338.468C724.854 341.224 726.359 344 729.995 344C733.631 344 735.136 341.244 735.136 338.468V276.406L789.046 342.156C790.258 343.385 791.157 344 792.975 344C796.298 344 798.116 341.541 798.116 338.468V262.268C798.116 259.512 796.005 257.054 792.975 257.054H792.994ZM1109.18 284.099C1109.18 292.705 1101.91 300.081 1091.32 300.081H1064.66V266.908H1091.32C1100.41 266.908 1109.18 273.055 1109.18 284.119V284.099ZM1104.34 307.754C1114.03 302.837 1119.48 294.549 1119.48 284.099C1119.48 268.732 1108.58 256.756 1091.32 256.756H1059.83C1056.8 256.756 1054.37 258.898 1054.37 261.971V338.468C1054.37 341.224 1056.48 344 1059.51 344C1062.84 344 1064.66 341.244 1064.66 338.468V309.896H1093.12L1112.19 340.927C1114.01 343.683 1116.73 344.912 1120.07 343.068C1123.41 341.224 1122.49 338.151 1120.97 335.395L1104.32 307.754H1104.34ZM1015.59 266.888C1018.31 266.888 1020.73 265.044 1020.73 261.971C1020.73 258.6 1018.31 257.054 1015.59 257.054H967.43C964.4 257.054 961.976 259.195 961.976 262.268V338.468C961.976 341.541 964.4 344 967.43 344H1015.59C1018.31 344 1020.73 342.473 1020.73 339.083C1020.73 335.692 1018.31 334.165 1015.59 334.165H972.277V304.978H1013.17C1016.2 304.978 1018.31 303.451 1018.31 300.061C1018.31 296.987 1016.2 295.143 1013.17 295.143H972.277V266.888H1015.59V266.888Z" fill="#001022"/>
<path d="M285.387 265.044C297.193 265.044 307.494 271.488 314.16 281.323C315.977 283.781 318.401 284.079 320.219 282.849C322.33 281.323 322.936 278.547 321.724 276.405C313.554 263.497 300.223 256.121 285.387 256.121C261.461 256.121 242.384 275.791 242.384 300.06C242.384 324.33 261.461 343.682 285.387 343.682C300.223 343.682 312.948 336.623 321.724 323.1C322.623 321.574 322.936 318.183 320.512 316.656C318.088 315.13 315.371 316.359 314.16 318.183C306.595 329.545 297.193 334.165 285.387 334.165C266.602 334.165 251.766 318.798 251.766 300.06C251.766 281.323 266.602 265.044 285.387 265.044V265.044Z" fill="#0081FF"/>
<path d="M369.572 239.227L292.948 194.058C287.202 190.985 280.536 190.985 275.083 194.058L198.147 239.227C192.4 242.598 189.37 248.447 189.37 254.891V301.586C189.37 304.045 191.481 306.187 193.905 306.187H224.496C230.242 306.187 230.848 302.816 230.848 300.04C230.848 269.623 255.38 244.739 285.364 244.739C302.624 244.739 318.379 252.115 328.973 266.867C330.791 269.326 333.215 269.009 335.033 267.779C337.144 265.935 337.456 262.862 336.245 261.335C324.126 245.056 305.361 235.519 285.364 235.519C251.451 235.519 223.577 262.247 222.072 296.649H198.44V254.871C198.44 251.501 199.945 248.725 202.975 247.198L279.598 202.029C282.315 200.503 285.658 200.503 288.375 202.029L364.998 247.198C367.715 248.725 369.533 251.501 369.533 254.871V344.574C369.533 347.647 367.715 350.721 364.998 352.247L288.375 397.416C285.658 398.943 282.315 398.943 279.598 397.416L202.975 352.247C199.945 350.721 198.44 347.647 198.44 344.574V321.534C198.44 319.075 196.622 316.933 193.905 316.933C191.481 316.933 189.37 319.075 189.37 321.534V344.574C189.37 351.018 193.006 356.867 198.147 360.555L275.083 405.109C277.8 406.636 280.829 407.568 283.859 407.568C287.182 407.568 290.212 406.656 292.948 405.109L369.572 360.555C375.025 356.867 378.661 351.038 378.661 344.574V254.871C378.661 248.427 375.025 242.578 369.572 239.207V239.227Z" fill="#0081FF"/>
<path d="M228.738 316.953C226.627 317.865 225.415 320.324 226.314 322.783C235.09 346.438 258.722 364.263 285.365 364.263C305.361 364.263 324.126 354.428 336.245 338.15C337.457 336.305 337.144 333.549 335.033 332.003C332.609 330.476 330.498 331.091 328.974 332.915C318.672 346.735 302.624 354.726 285.365 354.726C262.945 354.726 243.867 341.818 235.09 319.709C233.878 316.953 231.161 316.021 228.738 316.953V316.953Z" fill="#0081FF"/>
</svg>
