<svg width="217" height="80" viewBox="0 0 217 80" fill="none" xmlns="http://www.w3.org/2000/svg">
<g clip-path="url(#clip0_3213_4725)">
<path d="M108.592 27.0857C112.968 27.0857 116.787 29.4745 119.258 33.1201C119.932 34.0316 120.83 34.1418 121.504 33.6861C122.287 33.1201 122.511 32.0911 122.062 31.2973C119.033 26.5124 114.092 23.7782 108.592 23.7782C99.7232 23.7782 92.6514 31.0695 92.6514 40.066C92.6514 49.0624 99.7232 56.2361 108.592 56.2361C114.092 56.2361 118.809 53.6195 122.062 48.6067C122.395 48.0408 122.511 46.7839 121.613 46.218C120.714 45.652 119.707 46.1077 119.258 46.7839C116.454 50.9955 112.968 52.7081 108.592 52.7081C101.629 52.7081 96.1293 47.0118 96.1293 40.066C96.1293 33.1201 101.629 27.0857 108.592 27.0857Z" fill="#0081FF"/>
<path d="M139.799 17.5158L111.395 0.772292C109.265 -0.366969 106.794 -0.366969 104.773 0.772292L76.2534 17.5158C74.1231 18.7653 73 20.9335 73 23.3223V40.6317C73 41.5431 73.7825 42.3369 74.681 42.3369H86.0206C88.1509 42.3369 88.3755 41.0874 88.3755 40.0584C88.3755 28.7834 97.469 19.5591 108.584 19.5591C114.982 19.5591 120.822 22.2933 124.749 27.7617C125.423 28.6732 126.322 28.5556 126.995 28.0999C127.778 27.4163 127.894 26.277 127.445 25.7111C122.952 19.6767 115.996 16.1413 108.584 16.1413C96.0126 16.1413 85.6801 26.0492 85.1222 38.8016H76.362V23.3149C76.362 22.0654 76.92 21.0364 78.0431 20.4705L106.446 3.72702C107.454 3.16106 108.693 3.16106 109.7 3.72702L138.103 20.4705C139.11 21.0364 139.784 22.0654 139.784 23.3149V56.5667C139.784 57.7059 139.11 58.8452 138.103 59.4111L109.7 76.1546C108.693 76.7206 107.454 76.7206 106.446 76.1546L78.0431 59.4111C76.92 58.8452 76.362 57.7059 76.362 56.5667V48.0259C76.362 47.1145 75.6882 46.3207 74.681 46.3207C73.7825 46.3207 73 47.1145 73 48.0259V56.5667C73 58.9554 74.3477 61.1237 76.2534 62.4908L104.773 79.0064C105.78 79.5724 106.903 79.9178 108.026 79.9178C109.258 79.9178 110.381 79.5797 111.395 79.0064L139.799 62.4908C141.82 61.1237 143.168 58.9628 143.168 56.5667V23.3149C143.168 20.9262 141.82 18.7579 139.799 17.5084V17.5158Z" fill="#0081FF"/>
<path d="M87.5937 46.328C86.8112 46.6661 86.3619 47.5775 86.6953 48.4889C89.9486 57.2576 98.7087 63.8653 108.585 63.8653C115.997 63.8653 122.953 60.2196 127.445 54.1852C127.895 53.5017 127.779 52.48 126.996 51.9067C126.098 51.3408 125.315 51.5686 124.75 52.2448C120.931 57.3678 114.983 60.3299 108.585 60.3299C100.274 60.3299 93.2019 55.545 89.9486 47.3497C89.4994 46.328 88.4922 45.9826 87.5937 46.328Z" fill="#0081FF"/>
</g>
<defs>
<clipPath id="clip0_3213_4725">
<rect width="216.8" height="80" fill="white"/>
</clipPath>
</defs>
</svg>
