<svg width="374" height="72" viewBox="0 0 374 72" fill="none" xmlns="http://www.w3.org/2000/svg">
<path d="M372.249 25.0449C373.154 25.0449 373.962 24.4302 373.962 23.4058C373.962 22.2822 373.154 21.7667 372.249 21.7667H356.194C355.184 21.7667 354.376 22.4805 354.376 23.5049V48.9048C354.376 49.9292 355.184 50.7488 356.194 50.7488H372.249C373.154 50.7488 373.962 50.2399 373.962 49.1097C373.962 47.9795 373.154 47.4706 372.249 47.4706H357.81V37.7415H371.441C372.451 37.7415 373.154 37.2326 373.154 36.1024C373.154 35.078 372.451 34.4633 371.441 34.4633H357.81V25.0449H372.249ZM344.59 41.8394C343.782 41.3304 342.674 41.5353 342.166 42.3483C340.049 45.7257 336.615 47.6754 332.679 47.6754C326.62 47.6754 321.577 42.5532 321.577 36.4131C321.577 30.2729 326.626 24.9458 332.679 24.9458C336.615 24.9458 340.049 26.8889 342.166 30.2729C342.668 31.0925 343.782 31.2974 344.59 30.7819C345.294 30.3721 345.6 29.3476 345.092 28.4289C342.668 24.0271 337.723 21.5684 332.673 21.5684C324.698 21.5684 318.137 28.224 318.137 36.4197C318.137 44.6153 324.698 51.0661 332.673 51.0661C337.723 51.0661 341.958 48.918 345.092 44.2055C345.698 43.2868 345.391 42.3615 344.59 41.8526V41.8394ZM216.174 48.9048C216.174 49.8235 216.78 50.7488 217.888 50.7488C218.995 50.7488 219.601 49.8301 219.601 48.9048V29.037L228.684 42.6589C229.088 43.2736 229.694 43.6834 230.398 43.6834C231.101 43.6834 231.707 43.2736 232.111 42.6589L241.194 29.037V48.9048C241.194 49.8235 241.8 50.7488 242.908 50.7488C244.015 50.7488 244.621 49.8301 244.621 48.9048V23.5049C244.621 22.4805 243.918 21.7667 243.11 21.7667C242.302 21.7667 241.8 22.0707 241.396 22.6854L230.391 39.4798L219.386 22.6854C218.982 22.0707 218.481 21.7667 217.673 21.7667C216.865 21.7667 216.161 22.4805 216.161 23.5049V48.9048H216.174ZM112.088 41.8394C111.28 41.3304 110.172 41.5353 109.664 42.3483C107.546 45.7257 104.113 47.6754 100.177 47.6754C94.1176 47.6754 89.0745 42.5532 89.0745 36.4131C89.0745 30.2729 94.1241 24.9458 100.177 24.9458C104.113 24.9458 107.546 26.8889 109.664 30.2729C110.165 31.0925 111.28 31.2974 112.088 30.7819C112.791 30.3721 113.097 29.3476 112.589 28.4289C110.165 24.0271 105.22 21.5684 100.171 21.5684C92.1955 21.5684 85.6343 28.224 85.6343 36.4197C85.6343 44.6153 92.1955 51.0661 100.171 51.0661C105.22 51.0661 109.455 48.918 112.589 44.2055C113.195 43.2868 112.889 42.3615 112.088 41.8526V41.8394ZM136.619 47.6754C130.357 47.6754 125.412 42.5532 125.412 36.4131C125.412 30.2729 130.357 24.9458 136.619 24.9458C142.88 24.9458 147.826 30.068 147.826 36.4131C147.826 42.7581 142.776 47.6754 136.619 47.6754ZM136.619 21.5618C128.644 21.5618 121.978 28.2174 121.978 36.4131C121.978 44.6087 128.644 51.0595 136.619 51.0595C144.594 51.0595 151.259 44.4038 151.259 36.4131C151.259 28.4223 144.594 21.5618 136.619 21.5618ZM163.978 21.7667C162.87 21.7667 162.264 22.5862 162.264 23.5049V48.9048C162.264 49.8235 162.87 50.7488 163.978 50.7488C165.085 50.7488 165.691 49.8301 165.691 48.9048V23.5049C165.691 22.5862 165.085 21.7667 163.978 21.7667ZM201.332 21.7667C200.322 21.7667 199.618 22.5862 199.618 23.5049V44.3972L181.648 22.3813C181.244 21.9716 180.84 21.7667 180.234 21.7667C179.224 21.7667 178.618 22.5862 178.618 23.5049V48.9048C178.618 49.8235 179.12 50.7488 180.332 50.7488C181.544 50.7488 182.045 49.8301 182.045 48.9048V28.2174L200.016 50.1341C200.419 50.5439 200.719 50.7488 201.325 50.7488C202.433 50.7488 203.039 49.9292 203.039 48.9048V23.5049C203.039 22.5862 202.335 21.7667 201.325 21.7667H201.332ZM306.728 30.7819C306.728 33.6503 304.304 36.109 300.773 36.109H291.885V25.0515H300.773C303.802 25.0515 306.728 27.1004 306.728 30.7885V30.7819ZM305.112 38.6669C308.344 37.0277 310.162 34.265 310.162 30.7819C310.162 25.6596 306.526 21.6675 300.773 21.6675H290.276C289.266 21.6675 288.458 22.3813 288.458 23.4058V48.9048C288.458 49.8235 289.162 50.7488 290.172 50.7488C291.279 50.7488 291.885 49.8301 291.885 48.9048V39.3807H301.372L307.731 49.7244C308.337 50.6431 309.243 51.0528 310.357 50.4382C311.471 49.8235 311.165 48.799 310.657 47.8803L305.105 38.6669H305.112ZM275.531 25.0449C276.437 25.0449 277.245 24.4302 277.245 23.4058C277.245 22.2822 276.437 21.7667 275.531 21.7667H259.477C258.467 21.7667 257.659 22.4805 257.659 23.5049V48.9048C257.659 49.9292 258.467 50.7488 259.477 50.7488H275.531C276.437 50.7488 277.245 50.2399 277.245 49.1097C277.245 47.9795 276.437 47.4706 275.531 47.4706H261.093V37.7415H274.723C275.733 37.7415 276.437 37.2326 276.437 36.1024C276.437 35.078 275.733 34.4633 274.723 34.4633H261.093V25.0449H275.531Z" fill="#001022"/>
<path d="M32.1292 24.43C36.0646 24.43 39.4984 26.5781 41.7202 29.8563C42.3261 30.6759 43.1341 30.775 43.74 30.3653C44.4437 29.8563 44.6457 28.931 44.2417 28.2172C41.5182 23.9145 37.0746 21.4558 32.1292 21.4558C24.1541 21.4558 17.7949 28.0123 17.7949 36.1022C17.7949 44.1921 24.1541 50.6429 32.1292 50.6429C37.0746 50.6429 41.3162 48.2899 44.2417 43.7823C44.5414 43.2734 44.6457 42.1432 43.8377 41.6343C43.0298 41.1253 42.1241 41.5351 41.7202 42.1432C39.1986 45.9304 36.0646 47.4704 32.1292 47.4704C25.8677 47.4704 20.9224 42.3481 20.9224 36.1022C20.9224 29.8563 25.8677 24.43 32.1292 24.43V24.43Z" fill="#0081FF"/>
<path d="M60.1908 15.8245L34.6497 0.768341C32.7341 -0.256114 30.5123 -0.256114 28.6944 0.768341L3.04904 15.8245C1.13346 16.9481 0.123535 18.8979 0.123535 21.0459V36.611C0.123535 37.4306 0.827219 38.1444 1.63515 38.1444H11.8321C13.7476 38.1444 13.9496 37.0208 13.9496 36.0955C13.9496 25.9567 22.1267 17.6619 32.1216 17.6619C37.8749 17.6619 43.1264 20.1206 46.6579 25.038C47.2638 25.8576 48.0718 25.7518 48.6777 25.342C49.3814 24.7274 49.4857 23.7029 49.0817 23.194C45.042 17.7677 38.7871 14.5886 32.1216 14.5886C20.8171 14.5886 11.5258 23.498 11.0241 34.9653H3.14677V21.0393C3.14677 19.9157 3.64847 18.9904 4.65839 18.4815L30.1995 3.42531C31.1052 2.91639 32.2193 2.91639 33.125 3.42531L58.6661 18.4815C59.5718 18.9904 60.1777 19.9157 60.1777 21.0393V50.9402C60.1777 51.9646 59.5718 52.9891 58.6661 53.498L33.125 68.5542C32.2193 69.0631 31.1052 69.0631 30.1995 68.5542L4.65839 53.498C3.64847 52.9891 3.14677 51.9646 3.14677 50.9402V43.2601C3.14677 42.4405 2.54082 41.7267 1.63515 41.7267C0.827219 41.7267 0.123535 42.4405 0.123535 43.2601V50.9402C0.123535 53.0882 1.33544 55.038 3.04904 56.2673L28.6944 71.1186C29.6001 71.6275 30.61 71.9382 31.6199 71.9382C32.7276 71.9382 33.7375 71.6342 34.6497 71.1186L60.1908 56.2673C62.0086 55.038 63.2205 53.0948 63.2205 50.9402V21.0393C63.2205 18.8913 62.0086 16.9415 60.1908 15.8179V15.8245Z" fill="#0081FF"/>
<path d="M13.2459 41.7333C12.5422 42.0373 12.1382 42.8569 12.4379 43.6764C15.3634 51.5614 23.2408 57.5033 32.1216 57.5033C38.787 57.5033 45.042 54.225 49.0816 48.7987C49.4856 48.184 49.3813 47.2653 48.6777 46.7498C47.8697 46.2409 47.1661 46.4458 46.6578 47.0538C43.2241 51.6606 37.8748 54.3241 32.1216 54.3241C24.6482 54.3241 18.2889 50.0214 15.3634 42.652C14.9595 41.7333 14.0538 41.4226 13.2459 41.7333V41.7333Z" fill="#0081FF"/>
</svg>
