<svg width="1000" height="400" viewBox="0 0 1000 400" fill="none" xmlns="http://www.w3.org/2000/svg">
<path d="M870.497 177.926C872.309 177.926 873.925 176.696 873.925 174.647C873.925 172.4 872.309 171.369 870.497 171.369H838.388C836.369 171.369 834.753 172.797 834.753 174.846V225.645C834.753 227.694 836.369 229.333 838.388 229.333H870.497C872.309 229.333 873.925 228.316 873.925 226.055C873.925 223.795 872.309 222.777 870.497 222.777H841.62V203.319H868.881C870.901 203.319 872.309 202.301 872.309 200.041C872.309 197.992 870.901 196.762 868.881 196.762H841.62V177.926H870.497V177.926ZM815.18 211.514C813.564 210.497 811.349 210.906 810.332 212.532C806.097 219.287 799.23 223.187 791.359 223.187C779.24 223.187 769.154 212.942 769.154 200.662C769.154 188.382 779.253 177.727 791.359 177.727C799.23 177.727 806.097 181.614 810.332 188.382C811.336 190.021 813.564 190.431 815.18 189.399C816.587 188.58 817.2 186.531 816.183 184.694C811.336 175.89 801.445 170.973 791.346 170.973C775.396 170.973 762.273 184.284 762.273 200.675C762.273 217.066 775.396 229.968 791.346 229.968C801.445 229.968 809.915 225.672 816.183 216.247C817.395 214.409 816.783 212.559 815.18 211.541V211.514ZM558.348 225.645C558.348 227.483 559.56 229.333 561.776 229.333C563.991 229.333 565.203 227.496 565.203 225.645V185.91L583.368 213.154C584.176 214.383 585.388 215.203 586.795 215.203C588.203 215.203 589.415 214.383 590.223 213.154L608.388 185.91V225.645C608.388 227.483 609.6 229.333 611.815 229.333C614.031 229.333 615.242 227.496 615.242 225.645V174.846C615.242 172.797 613.835 171.369 612.219 171.369C610.603 171.369 609.6 171.977 608.792 173.206L586.782 206.795L564.773 173.206C563.965 171.977 562.961 171.369 561.345 171.369C559.73 171.369 558.322 172.797 558.322 174.846V225.645H558.348ZM350.175 211.514C348.559 210.497 346.344 210.906 345.328 212.532C341.092 219.287 334.225 223.187 326.354 223.187C314.235 223.187 304.149 212.942 304.149 200.662C304.149 188.382 314.248 177.727 326.354 177.727C334.225 177.727 341.092 181.614 345.328 188.382C346.331 190.021 348.559 190.431 350.175 189.399C351.583 188.58 352.195 186.531 351.179 184.694C346.331 175.89 336.44 170.973 326.341 170.973C310.391 170.973 297.269 184.284 297.269 200.675C297.269 217.066 310.391 229.968 326.341 229.968C336.44 229.968 344.911 225.672 351.179 216.247C352.39 214.409 351.778 212.559 350.175 211.541V211.514ZM399.238 223.187C386.715 223.187 376.824 212.942 376.824 200.662C376.824 188.382 386.715 177.727 399.238 177.727C411.761 177.727 421.651 187.972 421.651 200.662C421.651 213.352 411.552 223.187 399.238 223.187ZM399.238 170.959C383.287 170.959 369.956 184.271 369.956 200.662C369.956 217.053 383.287 229.955 399.238 229.955C415.188 229.955 428.519 216.643 428.519 200.662C428.519 184.68 415.188 170.959 399.238 170.959ZM453.955 171.369C451.74 171.369 450.528 173.008 450.528 174.846V225.645C450.528 227.483 451.74 229.333 453.955 229.333C456.171 229.333 457.383 227.496 457.383 225.645V174.846C457.383 173.008 456.171 171.369 453.955 171.369ZM528.663 171.369C526.643 171.369 525.236 173.008 525.236 174.846V216.63L489.296 172.598C488.488 171.779 487.68 171.369 486.468 171.369C484.448 171.369 483.237 173.008 483.237 174.846V225.645C483.237 227.483 484.24 229.333 486.664 229.333C489.088 229.333 490.091 227.496 490.091 225.645V184.271L526.031 228.104C526.839 228.924 527.438 229.333 528.65 229.333C530.866 229.333 532.077 227.694 532.077 225.645V174.846C532.077 173.008 530.67 171.369 528.65 171.369H528.663ZM739.456 189.399C739.456 195.136 734.608 200.054 727.545 200.054H709.771V177.939H727.545C733.605 177.939 739.456 182.037 739.456 189.413V189.399ZM736.224 205.169C742.687 201.891 746.323 196.366 746.323 189.399C746.323 179.155 739.052 171.171 727.545 171.171H706.552C704.532 171.171 702.916 172.598 702.916 174.647V225.645C702.916 227.483 704.324 229.333 706.343 229.333C708.559 229.333 709.771 227.496 709.771 225.645V206.597H728.744L741.462 227.284C742.674 229.122 744.486 229.941 746.714 228.712C748.942 227.483 748.33 225.434 747.313 223.596L736.211 205.169H736.224ZM677.062 177.926C678.874 177.926 680.49 176.696 680.49 174.647C680.49 172.4 678.874 171.369 677.062 171.369H644.954C642.934 171.369 641.318 172.797 641.318 174.846V225.645C641.318 227.694 642.934 229.333 644.954 229.333H677.062C678.874 229.333 680.49 228.316 680.49 226.055C680.49 223.795 678.874 222.777 677.062 222.777H648.185V203.319H675.447C677.466 203.319 678.874 202.301 678.874 200.041C678.874 197.992 677.466 196.762 675.447 196.762H648.185V177.926H677.062V177.926Z" fill="#001022"/>
<path d="M190.258 176.696C198.129 176.696 204.997 180.992 209.44 187.548C210.652 189.188 212.268 189.386 213.48 188.566C214.887 187.548 215.291 185.698 214.483 184.27C209.036 175.665 200.149 170.747 190.258 170.747C174.308 170.747 161.59 183.86 161.59 200.04C161.59 216.22 174.308 229.121 190.258 229.121C200.149 229.121 208.632 224.416 214.483 215.4C215.083 214.382 215.291 212.122 213.675 211.104C212.06 210.086 210.248 210.906 209.44 212.122C204.397 219.696 198.129 222.776 190.258 222.776C177.735 222.776 167.845 212.532 167.845 200.04C167.845 187.548 177.735 176.696 190.258 176.696V176.696Z" fill="#0081FF"/>
<path d="M246.382 159.485L195.299 129.372C191.468 127.323 187.025 127.323 183.389 129.372L132.098 159.485C128.267 161.732 126.247 165.631 126.247 169.927V201.058C126.247 202.697 127.654 204.124 129.27 204.124H149.664C153.495 204.124 153.899 201.877 153.899 200.027C153.899 179.749 170.253 163.159 190.243 163.159C201.75 163.159 212.253 168.077 219.316 177.912C220.528 179.551 222.144 179.339 223.355 178.52C224.763 177.29 224.971 175.241 224.163 174.224C216.084 163.371 203.574 157.013 190.243 157.013C167.634 157.013 149.052 174.832 148.048 197.766H132.294V169.914C132.294 167.667 133.297 165.816 135.317 164.799L186.399 134.686C188.21 133.668 190.439 133.668 192.25 134.686L243.332 164.799C245.144 165.816 246.355 167.667 246.355 169.914V229.716C246.355 231.765 245.144 233.814 243.332 234.832L192.25 264.944C190.439 265.962 188.21 265.962 186.399 264.944L135.317 234.832C133.297 233.814 132.294 231.765 132.294 229.716V214.356C132.294 212.717 131.082 211.289 129.27 211.289C127.654 211.289 126.247 212.717 126.247 214.356V229.716C126.247 234.012 128.671 237.912 132.098 240.37L183.389 270.073C185.2 271.091 187.22 271.712 189.24 271.712C191.455 271.712 193.475 271.104 195.299 270.073L246.382 240.37C250.017 237.912 252.441 234.025 252.441 229.716V169.914C252.441 165.618 250.017 161.719 246.382 159.471V159.485Z" fill="#0081FF"/>
<path d="M152.492 211.302C151.084 211.91 150.276 213.549 150.876 215.188C156.727 230.958 172.482 242.842 190.243 242.842C203.574 242.842 216.084 236.286 224.163 225.433C224.971 224.204 224.763 222.366 223.355 221.335C221.739 220.317 220.332 220.727 219.316 221.943C212.448 231.157 201.75 236.484 190.243 236.484C175.296 236.484 162.578 227.879 156.727 213.14C155.919 211.302 154.108 210.681 152.492 211.302V211.302Z" fill="#0081FF"/>
</svg>
