<svg width="434" height="160" viewBox="0 0 434 160" fill="none" xmlns="http://www.w3.org/2000/svg">
<g clip-path="url(#clip0_3213_4730)">
<path d="M217.184 54.1714C225.937 54.1714 233.574 58.949 238.516 66.2403C239.863 68.0631 241.66 68.2836 243.008 67.3722C244.573 66.2402 245.022 64.1822 244.124 62.5946C238.066 53.0248 228.183 47.5564 217.184 47.5564C199.446 47.5564 185.303 62.1389 185.303 80.1319C185.303 98.1249 199.446 112.472 217.184 112.472C228.183 112.472 237.617 107.239 244.124 97.2134C244.79 96.0815 245.022 93.5678 243.225 92.4359C241.428 91.304 239.414 92.2154 238.516 93.5678C232.907 101.991 225.937 105.416 217.184 105.416C203.258 105.416 192.259 94.0235 192.259 80.1319C192.259 66.2403 203.258 54.1714 217.184 54.1714Z" fill="#0081FF"/>
<path d="M279.597 35.0315L222.791 1.54458C218.53 -0.733937 213.589 -0.733937 209.545 1.54458L152.507 35.0315C148.246 37.5305 146 41.8671 146 46.6446V81.2634C146 83.0863 147.565 84.6739 149.362 84.6739H172.041C176.302 84.6739 176.751 82.1749 176.751 80.1168C176.751 57.5668 194.938 39.1181 217.168 39.1181C229.964 39.1181 241.644 44.5866 249.499 55.5235C250.846 57.3463 252.643 57.1111 253.991 56.1997C255.556 54.8326 255.788 52.5541 254.889 51.4222C245.905 39.3533 231.993 32.2826 217.168 32.2826C192.025 32.2826 171.36 52.0984 170.244 77.6031H152.724V46.6299C152.724 44.1309 153.84 42.0729 156.086 40.941L212.893 7.45404C214.907 6.32212 217.385 6.32212 219.4 7.45404L276.206 40.941C278.221 42.0729 279.568 44.1309 279.568 46.6299V113.133C279.568 115.412 278.221 117.69 276.206 118.822L219.4 152.309C217.385 153.441 214.907 153.441 212.893 152.309L156.086 118.822C153.84 117.69 152.724 115.412 152.724 113.133V96.0518C152.724 94.229 151.376 92.6413 149.362 92.6413C147.565 92.6413 146 94.229 146 96.0518V113.133C146 117.911 148.695 122.247 152.507 124.982L209.545 158.013C211.56 159.145 213.806 159.836 216.052 159.836C218.516 159.836 220.762 159.159 222.791 158.013L279.597 124.982C283.641 122.247 286.336 117.926 286.336 113.133V46.6299C286.336 41.8524 283.641 37.5158 279.597 35.0168V35.0315Z" fill="#0081FF"/>
<path d="M175.186 92.656C173.621 93.3322 172.723 95.155 173.39 96.9779C179.896 114.515 197.416 127.731 217.168 127.731C231.993 127.731 245.905 120.439 254.89 108.37C255.788 107.003 255.557 104.96 253.991 103.813C252.194 102.682 250.629 103.137 249.499 104.49C241.862 114.736 229.964 120.66 217.168 120.66C200.547 120.66 186.403 111.09 179.896 94.6994C178.998 92.656 176.983 91.9651 175.186 92.656Z" fill="#0081FF"/>
</g>
<defs>
<clipPath id="clip0_3213_4730">
<rect width="433.6" height="160" fill="white"/>
</clipPath>
</defs>
</svg>
