<svg width="1122" height="216" viewBox="0 0 1122 216" fill="none" xmlns="http://www.w3.org/2000/svg">
<path d="M1116.38 75.135C1119.09 75.135 1121.52 73.291 1121.52 70.2176C1121.52 66.8468 1119.09 65.3002 1116.38 65.3002H1068.21C1065.18 65.3002 1062.76 67.4417 1062.76 70.515V146.715C1062.76 149.788 1065.18 152.247 1068.21 152.247H1116.38C1119.09 152.247 1121.52 150.72 1121.52 147.329C1121.52 143.939 1119.09 142.412 1116.38 142.412H1073.06V113.225H1113.95C1116.98 113.225 1119.09 111.698 1119.09 108.307C1119.09 105.234 1116.98 103.39 1113.95 103.39H1073.06V75.135H1116.38V75.135ZM1033.4 125.518C1030.98 123.992 1027.65 124.606 1026.13 127.045C1019.78 137.177 1009.47 143.027 997.668 143.027C979.489 143.027 964.36 127.66 964.36 109.239C964.36 90.8191 979.509 74.8376 997.668 74.8376C1009.47 74.8376 1019.78 80.667 1026.13 90.819C1027.63 93.2777 1030.98 93.8924 1033.4 92.3458C1035.51 91.1165 1036.43 88.0431 1034.9 85.287C1027.63 72.0814 1012.8 64.7054 997.648 64.7054C973.723 64.7054 954.039 84.6723 954.039 109.259C954.039 133.846 973.723 153.198 997.648 153.198C1012.8 153.198 1025.5 146.754 1034.9 132.617C1036.72 129.861 1035.8 127.085 1033.4 125.558V125.518ZM648.152 146.715C648.152 149.471 649.97 152.247 653.293 152.247C656.616 152.247 658.433 149.491 658.433 146.715V87.1112L685.682 127.977C686.894 129.821 688.711 131.05 690.822 131.05C692.934 131.05 694.751 129.821 695.963 127.977L723.211 87.1112V146.715C723.211 149.471 725.029 152.247 728.352 152.247C731.675 152.247 733.493 149.491 733.493 146.715V70.515C733.493 67.4417 731.382 65.3002 728.958 65.3002C726.534 65.3002 725.029 66.2123 723.817 68.0563L690.803 118.44L657.788 68.0563C656.577 66.2123 655.071 65.3002 652.648 65.3002C650.224 65.3002 648.113 67.4417 648.113 70.515V146.715H648.152ZM335.892 125.518C333.468 123.992 330.145 124.606 328.621 127.045C322.268 137.177 311.967 143.027 300.161 143.027C281.982 143.027 266.853 127.66 266.853 109.239C266.853 90.8191 282.002 74.8376 300.161 74.8376C311.967 74.8376 322.268 80.667 328.621 90.819C330.126 93.2777 333.468 93.8924 335.892 92.3458C338.003 91.1165 338.922 88.0431 337.397 85.287C330.126 72.0814 315.29 64.7054 300.141 64.7054C276.216 64.7054 256.532 84.6723 256.532 109.259C256.532 133.846 276.216 153.198 300.141 153.198C315.29 153.198 327.995 146.754 337.397 132.617C339.215 129.861 338.296 127.085 335.892 125.558V125.518ZM409.486 143.027C390.701 143.027 375.865 127.66 375.865 109.239C375.865 90.8191 390.701 74.8376 409.486 74.8376C428.27 74.8376 443.106 90.2044 443.106 109.239C443.106 128.274 427.957 143.027 409.486 143.027ZM409.486 64.6855C385.56 64.6855 365.564 84.6525 365.564 109.239C365.564 133.826 385.56 153.179 409.486 153.179C433.411 153.179 453.407 133.212 453.407 109.239C453.407 85.2672 433.411 64.6855 409.486 64.6855ZM491.563 65.3002C488.24 65.3002 486.422 67.7589 486.422 70.515V146.715C486.422 149.471 488.24 152.247 491.563 152.247C494.886 152.247 496.703 149.491 496.703 146.715V70.515C496.703 67.7589 494.886 65.3002 491.563 65.3002ZM603.624 65.3002C600.595 65.3002 598.484 67.7589 598.484 70.515V133.192L544.574 67.1442C543.362 65.9149 542.15 65.3002 540.332 65.3002C537.302 65.3002 535.484 67.7589 535.484 70.515V146.715C535.484 149.471 536.989 152.247 540.625 152.247C544.261 152.247 545.766 149.491 545.766 146.715V84.6525L599.676 150.403C600.888 151.632 601.787 152.247 603.605 152.247C606.928 152.247 608.746 149.788 608.746 146.715V70.515C608.746 67.7589 606.635 65.3002 603.605 65.3002H603.624ZM919.813 92.3458C919.813 100.951 912.542 108.327 901.947 108.327H875.285V75.1548H901.947C911.036 75.1548 919.813 81.3015 919.813 92.3656V92.3458ZM914.965 116.001C924.66 111.083 930.114 102.795 930.114 92.3458C930.114 76.979 919.207 65.0028 901.947 65.0028H870.457C867.428 65.0028 865.004 67.1442 865.004 70.2176V146.715C865.004 149.471 867.115 152.247 870.145 152.247C873.467 152.247 875.285 149.491 875.285 146.715V118.142H903.745L922.823 149.173C924.641 151.929 927.358 153.159 930.701 151.315C934.043 149.471 933.124 146.397 931.6 143.641L914.946 116.001H914.965ZM826.223 75.135C828.94 75.135 831.364 73.291 831.364 70.2176C831.364 66.8468 828.94 65.3002 826.223 65.3002H778.06C775.03 65.3002 772.606 67.4417 772.606 70.515V146.715C772.606 149.788 775.03 152.247 778.06 152.247H826.223C828.94 152.247 831.364 150.72 831.364 147.329C831.364 143.939 828.94 142.412 826.223 142.412H782.907V113.225H823.799C826.829 113.225 828.94 111.698 828.94 108.307C828.94 105.234 826.829 103.39 823.799 103.39H782.907V75.135H826.223V75.135Z" fill="#001022"/>
<path d="M96.0166 73.2903C107.823 73.2903 118.124 79.7344 124.789 89.5692C126.607 92.0279 129.031 92.3253 130.849 91.096C132.96 89.5692 133.566 86.7932 132.354 84.6518C124.183 71.7437 110.853 64.3676 96.0166 64.3676C72.0913 64.3676 53.0137 84.0372 53.0137 108.307C53.0137 132.576 72.0913 151.929 96.0166 151.929C110.853 151.929 123.578 144.87 132.354 131.347C133.253 129.82 133.566 126.43 131.142 124.903C128.718 123.376 126.001 124.606 124.789 126.43C117.225 137.791 107.823 142.411 96.0166 142.411C77.2321 142.411 62.3961 127.044 62.3961 108.307C62.3961 89.5692 77.2321 73.2903 96.0166 73.2903V73.2903Z" fill="#0081FF"/>
<path d="M180.202 47.4736L103.578 2.30502C97.8316 -0.768341 91.1662 -0.768341 85.7126 2.30502L8.77651 47.4736C3.02976 50.8443 0 56.6937 0 63.1378V109.833C0 112.292 2.11105 114.433 4.53485 114.433H35.1256C40.8723 114.433 41.4783 111.062 41.4783 108.287C41.4783 77.8701 66.0095 52.9858 95.9942 52.9858C113.254 52.9858 129.009 60.3618 139.603 75.114C141.421 77.5727 143.845 77.2554 145.663 76.0261C147.774 74.1821 148.086 71.1087 146.874 69.5819C134.755 53.303 115.991 43.7657 95.9942 43.7657C62.0806 43.7657 34.2069 70.494 32.7018 104.896H9.0697V63.118C9.0697 59.7472 10.5748 56.9712 13.6046 55.4445L90.2279 10.2759C92.9449 8.74917 96.2874 8.74917 99.0044 10.2759L175.628 55.4445C178.345 56.9712 180.163 59.7472 180.163 63.118V152.821C180.163 155.894 178.345 158.967 175.628 160.494L99.0044 205.663C96.2874 207.189 92.9449 207.189 90.2279 205.663L13.6046 160.494C10.5748 158.967 9.0697 155.894 9.0697 152.821V129.78C9.0697 127.322 7.25185 125.18 4.53485 125.18C2.11105 125.18 0 127.322 0 129.78V152.821C0 159.265 3.63571 165.114 8.77651 168.802L85.7126 213.356C88.4296 214.883 91.4594 215.815 94.4891 215.815C97.8121 215.815 100.842 214.902 103.578 213.356L180.202 168.802C185.655 165.114 189.291 159.285 189.291 152.821V63.118C189.291 56.6738 185.655 50.8245 180.202 47.4537V47.4736Z" fill="#0081FF"/>
<path d="M39.367 125.2C37.256 126.112 36.0441 128.571 36.9432 131.029C45.7197 154.684 69.3518 172.51 95.9941 172.51C115.99 172.51 134.755 162.675 146.874 146.396C148.086 144.552 147.773 141.796 145.662 140.25C143.239 138.723 141.128 139.337 139.603 141.162C129.302 154.982 113.254 162.973 95.9941 162.973C73.5739 162.973 54.4962 150.064 45.7197 127.956C44.5078 125.2 41.7908 124.268 39.367 125.2V125.2Z" fill="#0081FF"/>
</svg>
