<svg width="748" height="144" viewBox="0 0 748 144" fill="none" xmlns="http://www.w3.org/2000/svg">
<path d="M744.25 50.0901C746.062 50.0901 747.677 48.8607 747.677 46.8118C747.677 44.5646 746.062 43.5336 744.25 43.5336H712.141C710.122 43.5336 708.506 44.9612 708.506 47.0101V97.8098C708.506 99.8587 710.122 101.498 712.141 101.498H744.25C746.062 101.498 747.677 100.48 747.677 98.2196C747.677 95.9592 746.062 94.9414 744.25 94.9414H715.373V75.4833H742.634C744.654 75.4833 746.062 74.4655 746.062 72.2051C746.062 70.1562 744.654 68.9268 742.634 68.9268H715.373V50.0901H744.25V50.0901ZM688.933 83.679C687.317 82.6611 685.102 83.0709 684.085 84.6968C679.85 91.4516 672.983 95.3511 665.112 95.3511C652.993 95.3511 642.907 85.1066 642.907 72.8264C642.907 60.5461 653.006 49.8918 665.112 49.8918C672.983 49.8918 679.85 53.7781 684.085 60.5461C685.089 62.1852 687.317 62.595 688.933 61.564C690.34 60.7444 690.953 58.6955 689.936 56.8581C685.089 48.0544 675.198 43.137 665.099 43.137C649.149 43.137 636.026 56.4483 636.026 72.8396C636.026 89.2308 649.149 102.132 665.099 102.132C675.198 102.132 683.668 97.8363 689.936 88.4113C691.148 86.5739 690.536 84.7232 688.933 83.7054V83.679ZM432.101 97.8098C432.101 99.6472 433.313 101.498 435.528 101.498C437.744 101.498 438.956 99.6605 438.956 97.8098V58.0742L457.121 85.3181C457.929 86.5474 459.141 87.367 460.548 87.367C461.956 87.367 463.168 86.5474 463.976 85.3181L482.141 58.0742V97.8098C482.141 99.6472 483.353 101.498 485.568 101.498C487.783 101.498 488.995 99.6605 488.995 97.8098V47.0101C488.995 44.9612 487.588 43.5336 485.972 43.5336C484.356 43.5336 483.353 44.1416 482.545 45.371L460.535 78.9599L438.526 45.371C437.718 44.1416 436.714 43.5336 435.098 43.5336C433.483 43.5336 432.075 44.9612 432.075 47.0101V97.8098H432.101ZM223.928 83.679C222.312 82.6611 220.097 83.0709 219.08 84.6968C214.845 91.4516 207.978 95.3511 200.107 95.3511C187.988 95.3511 177.902 85.1066 177.902 72.8264C177.902 60.5461 188.001 49.8918 200.107 49.8918C207.978 49.8918 214.845 53.7781 219.08 60.5461C220.084 62.1852 222.312 62.595 223.928 61.564C225.335 60.7444 225.948 58.6955 224.931 56.8581C220.084 48.0544 210.193 43.137 200.094 43.137C184.144 43.137 171.021 56.4483 171.021 72.8396C171.021 89.2308 184.144 102.132 200.094 102.132C210.193 102.132 218.663 97.8363 224.931 88.4113C226.143 86.5739 225.531 84.7232 223.928 83.7054V83.679ZM272.99 95.3511C260.468 95.3511 250.577 85.1066 250.577 72.8264C250.577 60.5461 260.468 49.8918 272.99 49.8918C285.513 49.8918 295.404 60.1363 295.404 72.8264C295.404 85.5164 285.305 95.3511 272.99 95.3511ZM272.99 43.1238C257.04 43.1238 243.709 56.4351 243.709 72.8264C243.709 89.2176 257.04 102.119 272.99 102.119C288.941 102.119 302.272 88.8079 302.272 72.8264C302.272 56.8449 288.941 43.1238 272.99 43.1238ZM327.708 43.5336C325.493 43.5336 324.281 45.1727 324.281 47.0101V97.8098C324.281 99.6472 325.493 101.498 327.708 101.498C329.924 101.498 331.136 99.6605 331.136 97.8098V47.0101C331.136 45.1727 329.924 43.5336 327.708 43.5336ZM402.416 43.5336C400.396 43.5336 398.989 45.1727 398.989 47.0101V88.7946L363.049 44.7629C362.241 43.9434 361.433 43.5336 360.221 43.5336C358.201 43.5336 356.989 45.1727 356.989 47.0101V97.8098C356.989 99.6472 357.993 101.498 360.417 101.498C362.841 101.498 363.844 99.6605 363.844 97.8098V56.4351L399.784 100.269C400.592 101.088 401.191 101.498 402.403 101.498C404.618 101.498 405.83 99.8587 405.83 97.8098V47.0101C405.83 45.1727 404.423 43.5336 402.403 43.5336H402.416ZM613.209 61.564C613.209 67.3009 608.361 72.2183 601.298 72.2183H583.524V50.1033H601.298C607.358 50.1033 613.209 54.2011 613.209 61.5772V61.564ZM609.977 77.334C616.44 74.0557 620.076 68.5303 620.076 61.564C620.076 51.3194 612.805 43.3353 601.298 43.3353H580.305C578.285 43.3353 576.669 44.7629 576.669 46.8118V97.8098C576.669 99.6472 578.077 101.498 580.096 101.498C582.312 101.498 583.524 99.6605 583.524 97.8098V78.7616H602.497L615.215 99.449C616.427 101.286 618.239 102.106 620.467 100.877C622.695 99.6472 622.083 97.5983 621.066 95.7609L609.964 77.334H609.977ZM550.815 50.0901C552.627 50.0901 554.243 48.8607 554.243 46.8118C554.243 44.5646 552.627 43.5336 550.815 43.5336H518.706C516.687 43.5336 515.071 44.9612 515.071 47.0101V97.8098C515.071 99.8587 516.687 101.498 518.706 101.498H550.815C552.627 101.498 554.243 100.48 554.243 98.2196C554.243 95.9592 552.627 94.9414 550.815 94.9414H521.938V75.4833H549.199C551.219 75.4833 552.627 74.4655 552.627 72.2051C552.627 70.1562 551.219 68.9268 549.199 68.9268H521.938V50.0901H550.815V50.0901Z" fill="#001022"/>
<path d="M64.0109 48.8602C71.8817 48.8602 78.7492 53.1563 83.1928 59.7128C84.4047 61.3519 86.0206 61.5502 87.2325 60.7306C88.6398 59.7128 89.0438 57.8622 88.2359 56.4345C82.7888 47.8291 73.9016 42.9117 64.0109 42.9117C48.0607 42.9117 35.3423 56.0248 35.3423 72.2045C35.3423 88.3843 48.0607 101.286 64.0109 101.286C73.9016 101.286 82.3849 96.58 88.2359 87.5648C88.8353 86.5469 89.0438 84.2865 87.4279 83.2687C85.8121 82.2508 84.0007 83.0704 83.1928 84.2865C78.1497 91.8609 71.8817 94.9408 64.0109 94.9408C51.4879 94.9408 41.5973 84.6963 41.5973 72.2045C41.5973 59.7128 51.4879 48.8602 64.0109 48.8602V48.8602Z" fill="#0081FF"/>
<path d="M120.134 31.649L69.0522 1.53668C65.2211 -0.512227 60.7774 -0.512227 57.1417 1.53668L5.85101 31.649C2.01984 33.8962 0 37.7958 0 42.0919V73.2221C0 74.8612 1.40737 76.2888 3.02323 76.2888H23.417C27.2482 76.2888 27.6522 74.0416 27.6522 72.191C27.6522 51.9134 44.0063 35.3239 63.9961 35.3239C75.5027 35.3239 86.0058 40.2412 93.0687 50.076C94.2806 51.7151 95.8965 51.5036 97.1084 50.6841C98.5157 49.4547 98.7242 47.4058 97.9163 46.388C89.837 35.5354 77.327 29.1771 63.9961 29.1771C41.387 29.1771 22.8046 46.996 21.8012 69.9306H6.04647V42.0786C6.04647 39.8314 7.04987 37.9808 9.0697 36.963L60.1519 6.85062C61.9633 5.83278 64.1916 5.83278 66.0029 6.85062L117.085 36.963C118.897 37.9808 120.108 39.8314 120.108 42.0786V101.88C120.108 103.929 118.897 105.978 117.085 106.996L66.0029 137.108C64.1916 138.126 61.9633 138.126 60.1519 137.108L9.0697 106.996C7.04987 105.978 6.04647 103.929 6.04647 101.88V86.5201C6.04647 84.881 4.83457 83.4534 3.02323 83.4534C1.40737 83.4534 0 84.881 0 86.5201V101.88C0 106.176 2.42381 110.076 5.85101 112.535L57.1417 142.237C58.9531 143.255 60.9729 143.876 62.9927 143.876C65.208 143.876 67.2279 143.268 69.0522 142.237L120.134 112.535C123.77 110.076 126.194 106.19 126.194 101.88V42.0786C126.194 37.7825 123.77 33.883 120.134 31.6358V31.649Z" fill="#0081FF"/>
<path d="M26.2447 83.4665C24.8373 84.0746 24.0294 85.7137 24.6288 87.3529C30.4798 103.123 46.2345 115.007 63.996 115.007C77.3269 115.007 89.8369 108.45 97.9162 97.5974C98.7241 96.3681 98.5156 94.5307 97.1083 93.4996C95.4924 92.4817 94.085 92.8915 93.0686 94.1076C86.2012 103.321 75.5026 108.648 63.996 108.648C49.0493 108.648 36.3308 100.043 30.4798 85.304C29.6719 83.4665 27.8605 82.8453 26.2447 83.4665V83.4665Z" fill="#0081FF"/>
</svg>
