<svg width="651" height="240" viewBox="0 0 651 240" fill="none" xmlns="http://www.w3.org/2000/svg">
<g clip-path="url(#clip0_3213_4735)">
<path d="M325.775 81.2572C338.905 81.2572 350.36 88.4235 357.772 99.3604C359.794 102.095 362.489 102.425 364.511 101.058C366.859 99.3604 367.533 96.2733 366.185 93.8919C357.099 79.5372 342.274 71.3346 325.775 71.3346C299.169 71.3346 277.953 93.2084 277.953 120.198C277.953 147.187 299.169 168.708 325.775 168.708C342.274 168.708 356.425 160.858 366.185 145.82C367.185 144.122 367.533 140.352 364.837 138.654C362.142 136.956 359.12 138.323 357.772 140.352C349.36 152.987 338.905 158.124 325.775 158.124C304.886 158.124 288.387 141.035 288.387 120.198C288.387 99.3604 304.886 81.2572 325.775 81.2572Z" fill="#0081FF"/>
<path d="M419.396 52.5473L334.186 2.31688C327.795 -1.10091 320.383 -1.10091 314.318 2.31688L228.76 52.5473C222.369 56.2958 219 62.8006 219 69.9669V121.895C219 124.629 221.348 127.011 224.043 127.011H258.062C264.453 127.011 265.127 123.262 265.127 120.175C265.127 86.3502 292.407 58.6772 325.752 58.6772C344.946 58.6772 362.466 66.8799 374.248 83.2852C376.269 86.0195 378.965 85.6667 380.986 84.2996C383.334 82.2489 383.682 78.8311 382.334 77.1332C368.857 59.03 347.989 48.4239 325.752 48.4239C288.038 48.4239 257.04 78.1475 255.367 116.405H229.086V69.9449C229.086 66.1963 230.76 63.1093 234.129 61.4114L319.339 11.1811C322.361 9.48319 326.078 9.48319 329.099 11.1811L414.31 61.4114C417.331 63.1093 419.353 66.1963 419.353 69.9449V169.7C419.353 173.118 417.331 176.536 414.31 178.233L329.099 228.464C326.078 230.162 322.361 230.162 319.339 228.464L234.129 178.233C230.76 176.536 229.086 173.118 229.086 169.7V144.078C229.086 141.343 227.065 138.962 224.043 138.962C221.348 138.962 219 141.343 219 144.078V169.7C219 176.866 223.043 183.371 228.76 187.472L314.318 237.019C317.34 238.717 320.709 239.754 324.078 239.754C327.773 239.754 331.143 238.739 334.186 237.019L419.396 187.472C425.461 183.371 429.504 176.888 429.504 169.7V69.9449C429.504 62.7785 425.461 56.2737 419.396 52.5252V52.5473Z" fill="#0081FF"/>
<path d="M262.78 138.984C260.433 139.998 259.085 142.733 260.085 145.467C269.845 171.773 296.125 191.596 325.753 191.596C347.99 191.596 368.858 180.659 382.335 162.556C383.683 160.505 383.335 157.44 380.988 155.72C378.292 154.022 375.945 154.706 374.249 156.734C362.794 172.103 344.947 180.99 325.753 180.99C300.82 180.99 279.605 166.635 269.845 142.049C268.497 138.984 265.476 137.948 262.78 138.984Z" fill="#0081FF"/>
</g>
<defs>
<clipPath id="clip0_3213_4735">
<rect width="650.4" height="240" fill="white"/>
</clipPath>
</defs>
</svg>
