<svg width="500" height="200" viewBox="0 0 500 200" fill="none" xmlns="http://www.w3.org/2000/svg">
<path d="M435.249 88.9628C436.154 88.9628 436.962 88.3481 436.962 87.3236C436.962 86.2 436.154 85.6845 435.249 85.6845H419.194C418.184 85.6845 417.376 86.3983 417.376 87.4228V112.823C417.376 113.847 418.184 114.667 419.194 114.667H435.249C436.154 114.667 436.962 114.158 436.962 113.028C436.962 111.897 436.154 111.388 435.249 111.388H420.81V101.659H434.441C435.451 101.659 436.154 101.15 436.154 100.02C436.154 98.9958 435.451 98.3811 434.441 98.3811H420.81V88.9628H435.249V88.9628ZM407.59 105.757C406.782 105.248 405.674 105.453 405.166 106.266C403.049 109.644 399.615 111.593 395.679 111.593C389.62 111.593 384.577 106.471 384.577 100.331C384.577 94.1908 389.626 88.8636 395.679 88.8636C399.615 88.8636 403.049 90.8068 405.166 94.1908C405.668 95.0103 406.782 95.2152 407.59 94.6997C408.294 94.2899 408.6 93.2655 408.092 92.3468C405.668 87.9449 400.723 85.4862 395.673 85.4862C387.698 85.4862 381.137 92.1419 381.137 100.338C381.137 108.533 387.698 114.984 395.673 114.984C400.723 114.984 404.958 112.836 408.092 108.123C408.698 107.205 408.391 106.279 407.59 105.77V105.757ZM279.174 112.823C279.174 113.741 279.78 114.667 280.888 114.667C281.995 114.667 282.601 113.748 282.601 112.823V92.9548L291.684 106.577C292.088 107.191 292.694 107.601 293.398 107.601C294.101 107.601 294.707 107.191 295.111 106.577L304.194 92.9548V112.823C304.194 113.741 304.8 114.667 305.908 114.667C307.015 114.667 307.621 113.748 307.621 112.823V87.4228C307.621 86.3983 306.918 85.6845 306.11 85.6845C305.302 85.6845 304.8 85.9885 304.396 86.6032L293.391 103.398L282.386 86.6032C281.982 85.9885 281.481 85.6845 280.673 85.6845C279.865 85.6845 279.161 86.3983 279.161 87.4228V112.823H279.174ZM175.088 105.757C174.28 105.248 173.172 105.453 172.664 106.266C170.546 109.644 167.113 111.593 163.177 111.593C157.118 111.593 152.075 106.471 152.075 100.331C152.075 94.1908 157.124 88.8636 163.177 88.8636C167.113 88.8636 170.546 90.8068 172.664 94.1908C173.165 95.0103 174.28 95.2152 175.088 94.6997C175.791 94.2899 176.097 93.2655 175.589 92.3468C173.165 87.9449 168.22 85.4862 163.171 85.4862C155.195 85.4862 148.634 92.1419 148.634 100.338C148.634 108.533 155.195 114.984 163.171 114.984C168.22 114.984 172.455 112.836 175.589 108.123C176.195 107.205 175.889 106.279 175.088 105.77V105.757ZM199.619 111.593C193.357 111.593 188.412 106.471 188.412 100.331C188.412 94.1908 193.357 88.8636 199.619 88.8636C205.88 88.8636 210.826 93.9859 210.826 100.331C210.826 106.676 205.776 111.593 199.619 111.593ZM199.619 85.4796C191.644 85.4796 184.978 92.1353 184.978 100.331C184.978 108.527 191.644 114.977 199.619 114.977C207.594 114.977 214.259 108.322 214.259 100.331C214.259 92.3402 207.594 85.4796 199.619 85.4796ZM226.978 85.6845C225.87 85.6845 225.264 86.5041 225.264 87.4228V112.823C225.264 113.741 225.87 114.667 226.978 114.667C228.085 114.667 228.691 113.748 228.691 112.823V87.4228C228.691 86.5041 228.085 85.6845 226.978 85.6845ZM264.332 85.6845C263.322 85.6845 262.618 86.5041 262.618 87.4228V108.315L244.648 86.2992C244.244 85.8894 243.84 85.6845 243.234 85.6845C242.224 85.6845 241.618 86.5041 241.618 87.4228V112.823C241.618 113.741 242.12 114.667 243.332 114.667C244.544 114.667 245.045 113.748 245.045 112.823V92.1353L263.016 114.052C263.419 114.462 263.719 114.667 264.325 114.667C265.433 114.667 266.039 113.847 266.039 112.823V87.4228C266.039 86.5041 265.335 85.6845 264.325 85.6845H264.332ZM369.728 94.6997C369.728 97.5682 367.304 100.027 363.773 100.027H354.885V88.9694H363.773C366.802 88.9694 369.728 91.0183 369.728 94.7063V94.6997ZM368.112 102.585C371.344 100.946 373.162 98.1829 373.162 94.6997C373.162 89.5774 369.526 85.5854 363.773 85.5854H353.276C352.266 85.5854 351.458 86.2992 351.458 87.3236V112.823C351.458 113.741 352.162 114.667 353.172 114.667C354.279 114.667 354.885 113.748 354.885 112.823V103.299H364.372L370.731 113.642C371.337 114.561 372.243 114.971 373.357 114.356C374.471 113.741 374.165 112.717 373.657 111.798L368.105 102.585H368.112ZM338.531 88.9628C339.437 88.9628 340.245 88.3481 340.245 87.3236C340.245 86.2 339.437 85.6845 338.531 85.6845H322.477C321.467 85.6845 320.659 86.3983 320.659 87.4228V112.823C320.659 113.847 321.467 114.667 322.477 114.667H338.531C339.437 114.667 340.245 114.158 340.245 113.028C340.245 111.897 339.437 111.388 338.531 111.388H324.093V101.659H337.723C338.733 101.659 339.437 101.15 339.437 100.02C339.437 98.9958 338.733 98.3811 337.723 98.3811H324.093V88.9628H338.531V88.9628Z" fill="#001022"/>
<path d="M95.1292 88.3479C99.0646 88.3479 102.498 90.4959 104.72 93.7742C105.326 94.5938 106.134 94.6929 106.74 94.2831C107.444 93.7742 107.646 92.8489 107.242 92.1351C104.518 87.8323 100.075 85.3737 95.1292 85.3737C87.1541 85.3737 80.7949 91.9302 80.7949 100.02C80.7949 108.11 87.1541 114.561 95.1292 114.561C100.075 114.561 104.316 112.208 107.242 107.7C107.541 107.191 107.646 106.061 106.838 105.552C106.03 105.043 105.124 105.453 104.72 106.061C102.199 109.848 99.0646 111.388 95.1292 111.388C88.8677 111.388 83.9224 106.266 83.9224 100.02C83.9224 93.7742 88.8677 88.3479 95.1292 88.3479V88.3479Z" fill="#0081FF"/>
<path d="M123.191 79.7424L97.6497 64.6862C95.7341 63.6617 93.5123 63.6617 91.6944 64.6862L66.049 79.7424C64.1335 80.866 63.1235 82.8157 63.1235 84.9638V100.529C63.1235 101.348 63.8272 102.062 64.6352 102.062H74.8321C76.7476 102.062 76.9496 100.939 76.9496 100.013C76.9496 89.8746 85.1267 81.5798 95.1216 81.5798C100.875 81.5798 106.126 84.0385 109.658 88.9558C110.264 89.7754 111.072 89.6697 111.678 89.2599C112.381 88.6452 112.486 87.6208 112.082 87.1118C108.042 81.6855 101.787 78.5064 95.1216 78.5064C83.8171 78.5064 74.5258 87.4159 74.0241 98.8831H66.1468V84.9572C66.1468 83.8336 66.6485 82.9083 67.6584 82.3993L93.1995 67.3432C94.1052 66.8342 95.2193 66.8342 96.125 67.3432L121.666 82.3993C122.572 82.9083 123.178 83.8336 123.178 84.9572V114.858C123.178 115.882 122.572 116.907 121.666 117.416L96.125 132.472C95.2193 132.981 94.1052 132.981 93.1995 132.472L67.6584 117.416C66.6485 116.907 66.1468 115.882 66.1468 114.858V107.178C66.1468 106.358 65.5408 105.645 64.6352 105.645C63.8272 105.645 63.1235 106.358 63.1235 107.178V114.858C63.1235 117.006 64.3354 118.956 66.049 120.185L91.6944 135.036C92.6001 135.545 93.61 135.856 94.6199 135.856C95.7276 135.856 96.7375 135.552 97.6497 135.036L123.191 120.185C125.009 118.956 126.221 117.013 126.221 114.858V84.9572C126.221 82.8091 125.009 80.8593 123.191 79.7358V79.7424Z" fill="#0081FF"/>
<path d="M76.2459 105.651C75.5422 105.955 75.1382 106.775 75.4379 107.594C78.3634 115.479 86.2408 121.421 95.1216 121.421C101.787 121.421 108.042 118.143 112.082 112.717C112.486 112.102 112.381 111.183 111.678 110.668C110.87 110.159 110.166 110.364 109.658 110.972C106.224 115.578 100.875 118.242 95.1216 118.242C87.6482 118.242 81.2889 113.939 78.3634 106.57C77.9595 105.651 77.0538 105.34 76.2459 105.651V105.651Z" fill="#0081FF"/>
</svg>
